<svg xmlns="http://www.w3.org/2000/svg" viewBox="0 0 576 512" fill="currentColor" stroke="none"><path d="M575.8 255.5c0 18-15 32.1-32 32.1h-32l.7 160.2c0 2.7-.2 5.4-.5 8.1V472c0 22.1-17.9 40-40 40H456c-1.1 0-2.2 0-3.3-.1c-1.4 .1-2.8 .1-4.2 .1H416 392c-22.1 0-40-17.9-40-40V400 336c0-26.5-21.5-48-48-48H272c-26.5 0-48 21.5-48 48v64 72c0 22.1-17.9 40-40 40H160 128.1c-1.5 0-3-.1-4.5-.2c-1.2 .1-2.4 .2-3.6 .2H104c-22.1 0-40-17.9-40-40v-72c0-.7 0-1.3 0-2V256 237.8L32.4 287.6c-12.4 8.4-29.1 5.5-37.8-6.5s-5.7-28.1 6.6-36.8L288 48 572.6 244.3c12.3 8.7 15.1 25.2 6.4 37.3c-1 1.4-2.2 2.8-3.2 3.9z"></path></svg>
