<svg xmlns="http://www.w3.org/2000/svg" viewBox="0 0 512 512" fill="currentColor" stroke="none"><path class="filled" d="M512 256c0 .9 0 1.8 0 2.7c-.4 36.5-33.6 61.3-70.1 61.3H344c-26.5 0-48 21.5-48 48c0 8.9 2.4 17.4 6.7 24.6c2.5 4.2 3.8 9 3.3 14c-.4 4.6-2.2 8.9-5.2 12.4C265.9 460.3 221.2 480 172 480C77 480 0 403 0 308C0 172.5 128.5 48 280.1 48c106.1 0 231.9 83.3 231.9 208zM128 256a32 32 0 1 0 -64 0 32 32 0 1 0 64 0zm0-96a32 32 0 1 0 -64 0 32 32 0 1 0 64 0zm128-64a32 32 0 1 0 -64 0 32 32 0 1 0 64 0zm128 64a32 32 0 1 0 -64 0 32 32 0 1 0 64 0z"></path></svg>
